<svg width="26" height="26" viewBox="0 0 26 26" fill="none" xmlns="http://www.w3.org/2000/svg">
<g clip-path="url(#clip0_22_71)">
<path d="M23.9336 18.2881L21.2929 16.7634L23.5815 15.414C24.0035 15.1651 24.144 14.6211 23.8951 14.199C23.646 13.7769 23.1023 13.6367 22.68 13.8854L19.5278 15.7443L17.6725 14.6732V11.3268L19.5267 10.2562L22.6801 12.1149C22.8216 12.1983 22.9767 12.2379 23.1299 12.2379C23.4337 12.2379 23.7296 12.0817 23.8951 11.801C24.144 11.3789 24.0034 10.8349 23.5813 10.586L21.2924 9.23683L23.9336 7.71183C24.358 7.46683 24.5034 6.92419 24.2584 6.49985C24.0135 6.07551 23.4706 5.93012 23.0464 6.17512L20.4055 7.69988L20.3816 5.04276C20.3772 4.55276 19.9756 4.1561 19.4864 4.16355C18.9963 4.16793 18.6027 4.56873 18.6071 5.05873L18.64 8.71903L16.785 9.79L13.8872 8.11677V5.97543L17.0737 4.17444C17.5001 3.93334 17.6506 3.39212 17.4095 2.96542C17.1684 2.53883 16.627 2.38835 16.2005 2.62956L13.8872 3.93713V0.887247C13.8872 0.39725 13.49 0 12.9999 0C12.5098 0 12.1127 0.39725 12.1127 0.887247V3.93713L9.7992 2.62968C9.37249 2.38835 8.83115 2.53895 8.59018 2.96553C8.34908 3.39212 8.49944 3.93346 8.92603 4.17456L12.1127 5.97555V8.11713L9.21491 9.79012L7.35974 8.71903L7.39263 5.05885C7.39701 4.56885 7.00342 4.16805 6.51331 4.16367C6.51047 4.16367 6.50787 4.16367 6.50526 4.16367C6.01905 4.16367 5.62251 4.5556 5.61814 5.04299L5.59424 7.69988L2.95367 6.17524C2.52898 5.93012 1.98646 6.07563 1.74169 6.49997C1.4967 6.92431 1.64209 7.46695 2.06643 7.71195L4.7077 9.23695L2.41837 10.5862C1.99616 10.8349 1.85562 11.3789 2.10452 11.8011C2.2699 12.0818 2.56577 12.238 2.86968 12.238C3.02276 12.238 3.17797 12.1983 3.31934 12.1151L6.47309 10.2563L8.32755 11.3271V14.6733L6.47214 15.7446L3.31946 13.8855C2.89748 13.6366 2.35366 13.7771 2.10452 14.1991C1.85562 14.6212 1.99616 15.1652 2.41813 15.4141L4.70687 16.7635L2.06643 18.2881C1.64209 18.533 1.4967 19.0757 1.74169 19.5C1.90613 19.7847 2.20425 19.9438 2.51088 19.9438C2.66136 19.9438 2.81408 19.9053 2.95367 19.8248L5.59424 18.3002L5.61814 20.9574C5.62251 21.4446 6.01893 21.8367 6.50526 21.8367C6.50787 21.8367 6.5107 21.8367 6.51331 21.8366C7.0033 21.8322 7.39701 21.4314 7.39263 20.9414L7.35962 17.2808L9.2148 16.2098L12.1127 17.883V20.0248L8.92603 21.8258C8.49956 22.0669 8.34908 22.6081 8.59018 23.0348C8.75331 23.3235 9.05391 23.4857 9.36338 23.4857C9.51126 23.4857 9.66126 23.4486 9.7992 23.3707L12.1127 22.0632V25.1129C12.1127 25.6029 12.5098 26.0001 12.9999 26.0001C13.49 26.0001 13.8872 25.6029 13.8872 25.1129V22.0632L16.2006 23.3707C16.3386 23.4486 16.4886 23.4857 16.6364 23.4857C16.9459 23.4857 17.2465 23.3235 17.4096 23.0348C17.6507 22.6081 17.5004 22.0669 17.0738 21.8258L13.8873 20.0248V17.8831L16.7853 16.2098L18.6402 17.2806L18.6064 20.941C18.6019 21.431 18.9955 21.832 19.4854 21.8364C19.4882 21.8366 19.491 21.8366 19.4937 21.8366C19.9799 21.8366 20.3764 21.4446 20.3809 20.9575L20.4055 18.2998L23.0465 19.8246C23.1863 19.9053 23.3388 19.9437 23.4893 19.9437C23.7959 19.9437 24.0942 19.7844 24.2585 19.4999C24.5034 19.0757 24.3579 18.533 23.9336 18.2881ZM10.102 11.3269L13.0001 9.6536L15.898 11.3269V14.6731L13.0001 16.3464L10.102 14.6731V11.3269Z" fill="white"/>
</g>
<defs>
<clipPath id="clip0_22_71">
<rect width="26" height="26" fill="white"/>
</clipPath>
</defs>
</svg>
