<svg width="44" height="46" viewBox="0 0 44 46" fill="none" xmlns="http://www.w3.org/2000/svg">
<g filter="url(#filter0_d_32_13)">
<path d="M27.6742 11.1788C26.9462 10.7907 26.0355 11.0552 25.6401 11.7697C25.2446 12.4841 25.5142 13.3779 26.2421 13.7661C29.7937 15.6596 32 19.2973 32 23.2598C32 29.2126 27.0654 34.0557 21 34.0557C14.9346 34.0557 10 29.2126 10 23.2598C10 19.3146 12.1921 15.6844 15.7208 13.7858C16.4473 13.395 16.7133 12.5001 16.3151 11.7872C15.9168 11.0743 15.005 10.8131 14.2787 11.2039C9.7891 13.6196 7 18.2391 7 23.2598C7 30.8361 13.2804 37 21 37C28.7196 37 35 30.8361 35 23.2598C35 18.2171 32.1929 13.588 27.6742 11.1788Z" fill="white"/>
<path d="M21 19C21.8552 19 22.5484 18.3801 22.5484 17.6154V8.38462C22.5484 7.61994 21.8552 7 21 7C20.1449 7 19.4517 7.61994 19.4517 8.38462V17.6154C19.4517 18.3801 20.1449 19 21 19Z" fill="white"/>
</g>
<defs>
<filter id="filter0_d_32_13" x="0" y="0" width="44" height="46" filterUnits="userSpaceOnUse" color-interpolation-filters="sRGB">
<feFlood flood-opacity="0" result="BackgroundImageFix"/>
<feColorMatrix in="SourceAlpha" type="matrix" values="0 0 0 0 0 0 0 0 0 0 0 0 0 0 0 0 0 0 127 0" result="hardAlpha"/>
<feOffset dx="1" dy="1"/>
<feGaussianBlur stdDeviation="4"/>
<feComposite in2="hardAlpha" operator="out"/>
<feColorMatrix type="matrix" values="0 0 0 0 0 0 0 0 0 0 0 0 0 0 0 0 0 0 0.96 0"/>
<feBlend mode="normal" in2="BackgroundImageFix" result="effect1_dropShadow_32_13"/>
<feBlend mode="normal" in="SourceGraphic" in2="effect1_dropShadow_32_13" result="shape"/>
</filter>
</defs>
</svg>
