<svg width="130" height="58" viewBox="0 0 130 58" fill="none" xmlns="http://www.w3.org/2000/svg">
<path d="M20 16H110" stroke="#414141" stroke-width="4" stroke-linecap="round"/>
<path d="M2 11C2 8.20435 2 6.80653 2.45672 5.7039C3.06569 4.23373 4.23373 3.06569 5.7039 2.45672C6.80653 2 8.20435 2 11 2H119C121.796 2 123.193 2 124.296 2.45672C125.766 3.06569 126.934 4.23373 127.543 5.7039C128 6.80653 128 8.20435 128 11V35C128 41.5232 128 44.7848 126.934 47.3576C125.513 50.788 122.788 53.5134 119.358 54.9343C116.785 56 113.523 56 107 56H23C16.4768 56 13.2152 56 10.6424 54.9343C7.21204 53.5134 4.4866 50.788 3.06569 47.3576C2 44.7848 2 41.5232 2 35V11Z" stroke="#414141" stroke-width="4" stroke-linejoin="round"/>
<path d="M21 44.5909C21 39.8463 24.8463 36 29.5909 36H100.409C105.154 36 109 39.8463 109 44.5909V56H21V44.5909Z" stroke="#414141" stroke-width="4" stroke-linejoin="round"/>
</svg>
