<svg width="26" height="26" viewBox="0 0 26 26" fill="none" xmlns="http://www.w3.org/2000/svg">
<path d="M24.8696 3.9565C24.2453 3.9565 23.7391 4.46264 23.7391 5.08694V6.21738H22.6087V4.5217C22.6087 2.96139 21.3429 1.69562 19.7826 1.69562C18.2223 1.69562 16.9565 2.96139 16.9565 4.5217V5.08689H15.8261V4.5217C15.8261 2.96139 14.5603 1.69562 13 1.69562C11.4397 1.69562 10.1739 2.96139 10.1739 4.5217V5.08689H9.04348V4.5217C9.04348 2.96139 7.77771 1.69562 6.2174 1.69562C4.6571 1.69562 3.39132 2.96139 3.39132 4.5217V6.21733H1.13044C0.506137 6.21738 0 6.72347 0 7.34782C0 7.97213 0.506137 8.47827 1.13044 8.47827H3.39132V17.5217H1.13044C0.506137 17.5217 0 18.0278 0 18.6521C0 19.2764 0.506137 19.7826 1.13044 19.7826H3.39132V21.4782C3.39132 23.0385 4.6571 24.3043 6.2174 24.3043C7.77771 24.3043 9.04348 23.0385 9.04348 21.4782V20.913H10.1739V21.4782C10.1739 23.0385 11.4397 24.3043 13 24.3043C14.5603 24.3043 15.8261 23.0385 15.8261 21.4782V20.913H16.9565V21.4782C16.9565 23.0385 18.2223 24.3043 19.7826 24.3043C21.3429 24.3043 22.6087 23.0385 22.6087 21.4782V19.7826H24.8696C25.4939 19.7826 26 19.2765 26 18.6521C26 18.0278 25.4939 17.5217 24.8696 17.5217H22.6087V8.47827H23.7391V9.60871C23.7391 10.233 24.2453 10.7391 24.8696 10.7391C25.4939 10.7391 26 10.233 26 9.60866V5.08689C26 4.46264 25.4939 3.9565 24.8696 3.9565ZM15.8261 10.7391H16.9565V15.2608H15.8261V10.7391ZM16.9565 7.34782V8.47827H15.8261V7.34782H16.9565ZM9.04348 10.7391H10.1739V15.2608H9.04348V10.7391ZM10.1739 7.34782V8.47827H9.04348V7.34782H10.1739ZM6.7826 21.4783C6.7826 21.79 6.52905 22.0435 6.2174 22.0435C5.90571 22.0435 5.65221 21.7899 5.65221 21.4783V4.5217C5.65221 4.21 5.90576 3.9565 6.2174 3.9565C6.5291 3.9565 6.7826 4.21005 6.7826 4.5217V6.21733V9.60866V16.3913V19.7826V21.4783ZM9.04348 18.6521V17.5217H10.1739V18.6521H9.04348ZM13.5652 21.4783C13.5652 21.79 13.3116 22.0435 13 22.0435C12.6884 22.0435 12.4348 21.7899 12.4348 21.4783V19.7826V16.3913V9.60866V6.21733V4.5217C12.4348 4.21 12.6884 3.9565 13 3.9565C13.3116 3.9565 13.5652 4.21005 13.5652 4.5217V6.21733V9.60866V16.3913V19.7826V21.4783ZM15.8261 18.6521V17.5217H16.9565V18.6521H15.8261ZM20.3478 21.4783C20.3478 21.79 20.0943 22.0435 19.7826 22.0435C19.471 22.0435 19.2175 21.7899 19.2175 21.4783V19.7826V16.3913V9.60866V6.21733V4.5217C19.2175 4.21 19.471 3.9565 19.7826 3.9565C20.0943 3.9565 20.3478 4.21005 20.3478 4.5217V21.4783Z" fill="white"/>
</svg>
