<svg width="26" height="26" viewBox="0 0 26 26" fill="none" xmlns="http://www.w3.org/2000/svg">
<g clip-path="url(#clip0_24_108)">
<path d="M24.2205 16.3289C22.9679 15.2917 21.6779 15.0736 20.5398 14.8811C19.7841 14.7533 19.1663 14.6474 18.6221 14.3344C21.6659 13.6733 23.9505 12.1024 25.1214 9.83245C26.244 7.65609 26.1691 5.05483 24.9167 2.69628C24.1573 1.26428 22.5085 0.219209 20.7163 0.0338661C18.9944 -0.144069 17.392 0.492968 16.3184 1.78422C15.2814 3.03686 15.0632 4.32685 14.8708 5.46491C14.7439 6.21527 14.6385 6.82945 14.3308 7.37082C13.6703 4.32543 12.0992 2.0397 9.82856 0.868224C7.6522 -0.254392 5.05094 -0.179845 2.69191 1.07264C1.25976 1.83229 0.214687 3.48115 0.0293443 5.27358C-0.148591 6.99541 0.488604 8.59762 1.7797 9.67106C3.0325 10.7083 4.32249 10.9264 5.46055 11.1188C6.21642 11.2466 6.83423 11.3525 7.3786 11.6657C4.33462 12.3267 2.04999 13.8975 0.87899 16.1675C-0.243627 18.3439 -0.168922 20.9451 1.08356 23.3038C1.84306 24.736 3.49207 25.7811 5.28451 25.9663C5.47458 25.986 5.66291 25.9957 5.84952 25.9957C7.35338 25.9957 8.7269 25.3645 9.68183 24.2161C10.719 22.9634 10.9371 21.6734 11.1296 20.5354C11.2565 19.785 11.3619 19.1707 11.6695 18.6293C12.3301 21.6747 13.9012 23.9604 16.1718 25.1317C17.1961 25.6602 18.3143 25.9232 19.4572 25.9232C20.7428 25.9232 22.0596 25.5902 23.3083 24.9272C24.7405 24.1677 25.7854 22.5187 25.9707 20.7262C26.1486 19.0046 25.5115 17.4023 24.2205 16.3289ZM13 15.9407C11.3784 15.9407 10.0591 14.6214 10.0591 13C10.0591 11.3785 11.3784 10.0592 13 10.0592C14.6216 10.0592 15.9409 11.3785 15.9409 13C15.9409 14.6214 14.6216 15.9407 13 15.9407ZM17.2016 5.85892C17.3652 4.89155 17.5064 4.05609 18.1375 3.29376C18.9036 2.37256 19.9296 2.32906 20.4728 2.38532C21.4713 2.48855 22.4397 3.07185 22.8282 3.80455C23.7253 5.4936 23.7936 7.24947 23.0202 8.74876C22.1925 10.3536 20.5044 11.4873 18.21 12.0053C17.9622 10.7054 17.239 9.5724 16.2281 8.79462C16.8713 7.8003 17.0503 6.75317 17.2016 5.85892ZM3.28923 7.85183C2.36804 7.08588 2.3247 6.06003 2.38096 5.51677C2.48419 4.51803 3.06748 3.54955 3.80019 3.16105C5.48955 2.26413 7.24558 2.19604 8.74455 2.96925C10.352 3.7984 11.4869 5.49045 12.0037 7.79037C10.7066 8.03796 9.57607 8.75916 8.79877 9.76673C7.80208 9.11929 6.75149 8.93946 5.85472 8.78785C4.88719 8.62425 4.05157 8.48304 3.28923 7.85183ZM8.79861 20.141C8.63502 21.1084 8.49365 21.9439 7.86244 22.7064C7.09648 23.6276 6.07001 23.6709 5.52753 23.6146C4.52895 23.5114 3.56031 22.9281 3.17182 22.1956C2.27473 20.5064 2.20665 18.7505 2.98001 17.2512C3.80775 15.6465 5.4957 14.5127 7.7901 13.9949C8.03786 15.2949 8.76126 16.4277 9.77213 17.2055C9.12895 18.1997 8.94975 19.2469 8.79861 20.141ZM23.6193 20.4832C23.516 21.4819 22.9327 22.4504 22.2002 22.8389C20.5108 23.736 18.7551 23.8041 17.2557 23.0307C15.6483 22.2016 14.5133 20.5095 13.9967 18.2094C15.2938 17.9618 16.4243 17.2408 17.2016 16.2329C18.1983 16.8805 19.2489 17.0603 20.1455 17.212C21.1129 17.3756 21.9483 17.5168 22.7108 18.148C23.632 18.9141 23.6754 19.9399 23.6193 20.4832Z" fill="white"/>
</g>
<defs>
<clipPath id="clip0_24_108">
<rect width="26" height="26" fill="white"/>
</clipPath>
</defs>
</svg>
